<svg width="720" height="540" viewBox="0 0 720 540" fill="none" xmlns="http://www.w3.org/2000/svg">
  <rect width="720" height="540" rx="32" fill="#FFFDF8"/>
  <rect x="80" y="95" width="560" height="350" rx="24" fill="#F1E3D4"/>
  <rect x="126" y="146" width="220" height="16" rx="8" fill="#B96B43"/>
  <rect x="126" y="184" width="180" height="12" rx="6" fill="#7E462C"/>
  <rect x="126" y="224" width="268" height="144" rx="18" fill="#FFFFFF"/>
  <rect x="148" y="248" width="100" height="12" rx="6" fill="#24312B"/>
  <rect x="148" y="276" width="160" height="10" rx="5" fill="#5E6F67"/>
  <rect x="148" y="302" width="132" height="10" rx="5" fill="#5E6F67"/>
  <circle cx="518" cy="248" r="74" fill="#24312B"/>
  <path d="M470 248C470 222.595 490.595 202 516 202H516C541.405 202 562 222.595 562 248V248C562 273.405 541.405 294 516 294H516C490.595 294 470 273.405 470 248V248Z" fill="#B96B43"/>
  <rect x="430" y="336" width="168" height="28" rx="14" fill="#7E462C"/>
  <rect x="430" y="376" width="116" height="16" rx="8" fill="#5E6F67"/>
</svg>
